<?xml version="1.0" encoding="UTF-8"?>
<svg id="Layer_1" data-name="Layer 1" xmlns="http://www.w3.org/2000/svg" viewBox="0 0 1920 960">
  <defs>
    <style>
      .cls-1 {
        fill: #ef5225;
      }
    </style>
  </defs>
  <path class="cls-1" d="M1786.48,356.51l-22.08-7.06-193.28,381.1c-2.39,4.6-7.57,7.01-12.63,5.9l-62.21-13.54c-7.55-1.65-11.36-10.16-7.57-16.9l50.74-92.95c1.55-2.74,1.91-6.02.99-9.02l-72.89-266.33c-2.24-7.32,3.15-14.76,10.83-14.89l67.24-1.14c5.23-.1,9.86,3.35,11.28,8.39l34.11,150.19c2.87,10.14,16.75,11.41,21.4,1.96l76.01-159.86-19.11-6.12c-8.28-2.64-10.57-13.24-4.14-19.08l90.67-72.46c6.43-5.82,16.77-2.52,18.6,5.97l26.51,112.73c1.86,8.49-6.2,15.78-14.46,13.14Z"/>
  <path class="cls-1" d="M411.02,618.28c0,72.09-51.36,119.97-156.01,119.97-45.95,0-84.09-11.46-113.31-34.46l-17.05,15.25c-6.48,5.77-16.77,2.39-18.55-6.1l-25.56-122.06c-1.78-8.51,6.3-15.73,14.54-13.04l118.55,38.88c8.26,2.72,10.47,13.34,4.02,19.14l-17.71,15.83c17.59,12.73,38.78,19.42,63.96,19.42,39.52,0,62.21-18.75,62.21-50.85,0-86.4-217.23-13.34-217.23-173.31,0-71.08,53.8-121.45,147.62-121.45,65.67,0,117.46,29.88,145.66,80.3,3.18,5.67.99,12.86-4.75,15.86l-45.59,23.84c-5.21,2.72-11.56,1.07-14.84-3.79-20.74-30.67-50.7-48.08-86.91-48.08-38.5,0-57.76,19.75-57.76,50.85,0,81.47,218.72,2.46,218.72,173.8Z"/>
  <path class="cls-1" d="M1195.51,321.34c-28.48-.24-46.81-18.2-46.61-42.76.2-24.07,18.34-42.21,47.32-41.97,27.97.23,47.31,18.21,47.1,42.76-.2,24.07-19.84,42.2-47.81,41.97Z"/>
  <path class="cls-1" d="M1216.43,635.84l-236-5.41c-6.32-.14-11.34-5.36-11.25-11.68l5.58-320.15c.1-6.26,5.18-11.3,11.45-11.33l66.81-.37c6.46-.04,11.69,5.25,11.57,11.71l-5.02,239.67c-.11,6.32,4.89,11.55,11.21,11.71l148.71,3.85c6.43.17,11.47,5.57,11.2,11.99l-2.49,58.99c-.26,6.26-5.49,11.17-11.76,11.02Z"/>
  <path class="cls-1" d="M1383.35,391.05l.19,7.44c.17,6.47,5.64,11.54,12.11,11.2l33.23-1.73c6.45-.34,11.91,4.7,12.1,11.15l1.28,42.65c.19,6.26-4.66,11.52-10.91,11.84l-34.73,1.79c-6.27.32-11.12,5.61-10.91,11.89l4.65,135.49c.22,6.43-4.87,11.79-11.3,11.9l-59.4,1.07c-6.3.11-11.52-4.86-11.71-11.15l-4.22-135.46c-.2-6.42-5.61-11.43-12.03-11.14l-20.12.91c-6.42.29-11.83-4.73-12.03-11.15l-1.28-41.79c-.19-6.24,4.63-11.49,10.86-11.84l21.65-1.22c6.19-.35,10.99-5.53,10.86-11.73l-.27-13.09c-1.89-94.65,52.47-142.58,137.86-141.61,6.24.07,11.34,5.06,11.47,11.3l1.02,48.81c.13,6.1-4.54,11.32-10.63,11.71-42.35,2.7-59.13,22.53-57.76,72.75Z"/>
  <path class="cls-1" d="M1148.43,520.56l2.68-176.79c.1-6.47,5.51-11.59,11.97-11.33l60.8,2.45c6.26.25,11.17,5.47,11.05,11.73l-3.5,175.36c-.13,6.34-5.36,11.39-11.7,11.28l-59.98-1.02c-6.35-.11-11.41-5.34-11.31-11.68Z"/>
  <path class="cls-1" d="M875.96,604.99l-.12-.7c-1.73-9.74-13.91-12.73-20.31-5.19-15.63,18.42-37.63,30.64-64.77,34.8-72.23,11.07-127.83-32.36-140.54-115.33-12.34-80.53,33.76-141.53,105.5-152.52,22.84-3.5,44.62.47,63.02,11.08,8.46,4.88,18.8-1.92,17.32-11.57l-.88-5.74c-.98-6.4,3.5-12.34,9.92-13.16l55.6-7.1c6.17-.79,11.85,3.47,12.83,9.61l38.72,243.79c1,6.3-3.32,12.22-9.62,13.18l-53.58,8.21c-6.18.95-11.98-3.21-13.08-9.36ZM785.17,434.46c-36.6,5.61-57.87,36.34-52.11,73.91,6.06,39.53,35.4,61.51,72,55.9,38.55-5.91,56.29-40.09,50.99-74.75-5.46-35.62-33.29-60.83-70.87-55.07Z"/>
  <path class="cls-1" d="M555.89,636.2c-83.44,0-134.79-56.29-134.79-142.19s58.26-140.71,138.74-140.71c32.71,0,64.2,11.38,86.35,33.05,3.92,3.83,4.48,9.96,1.45,14.53l-28.52,43.12c-3.57,5.4-10.87,6.73-16.2,3.05-11.38-7.86-23.86-11.79-38.15-11.79-37.52,0-59.24,27.65-59.24,62.21s20.74,59.75,55.3,59.75c20.54,0,35.82-4.93,49.33-15.59,5.14-4.05,12.59-3.1,16.45,2.18l29.74,40.68c3.38,4.62,2.88,11.06-1.22,15.05-25.32,24.7-58.15,36.68-99.24,36.68Z"/>
</svg>