<?xml version="1.0" encoding="UTF-8"?>
<svg id="Layer_1" data-name="Layer 1" xmlns="http://www.w3.org/2000/svg" viewBox="0 0 792 612">
  <defs>
    <style>
      .cls-1 {
        fill: #ffffff;
      }
    </style>
  </defs>
  <path class="cls-1" d="M292.76,306.49,500.05,306.49,320.27,253.12l-27.29-52.9c-.13-.24-.45-.44-.73-.44h-53.94c-.27,0-.4.2-.27.44l109.61,212.71c.13.24.33.24.46,0l48.06-93.18c.13-.24.33-.24.46,0l48,93.04c.13.24.33.24.46,0l109.86-212.72c.13-.24,0-.44-.27-.44h-12.22c-.27,0-.6.2-.73.44l-48.06,93.16c-.13.24-.33.24-.46,0l-48.06-93.16c-.13-.24-.33-.24-.46,0l-27.15,52.62c-.13.24-.33.24-.46,0l-27.07-52.47c-.13-.24-.45-.44-.73-.44h-41.33M444.69,225.7c.13-.24.33-.24.46,0l41.45,80.34c.13.24.13.64,0,.89l-20.54,39.81c-.13.24-.33.24-.46,0l-41.45-80.35c-.13-.24-.13-.64,0-.89l20.53-39.8ZM389.57,306.05c.13.24.13.64,0,.89l-20.54,39.8c-.13.24-.33.24-.46,0l-41.45-80.35c-.13-.24-.13-.64,0-.89l20.54-39.81c.13-.24.33-.24.46,0l41.45,80.36Z"/>
</svg>