<?xml version="1.0" encoding="UTF-8"?>
<svg id="Layer_1" data-name="Layer 1" xmlns="http://www.w3.org/2000/svg" viewBox="0 260 792 145">
  <defs>
    <style>
      .cls-1 {
        fill: #ffffff;
      }
    </style>
  </defs>
  <path class="cls-1" d="M157.88,276.78h-10.31c-.21,0-.45.16-.52.36l-16.48,42.78c-.08.2-.2.2-.28,0l-17.08-43.53c-.08-.2-.2-.2-.28,0l-16.93,43.73c-.08.2-.2.2-.28,0l-16.88-42.98c-.08-.2-.31-.36-.52-.36h-15.94c-.21,0-.32.16-.24.36l26.85,66.92c.08.2.31.36.52.36h6.77c.21,0,.45-.16.52-.36l13.33-33.55c.08-.2.21-.2.28,0l13.58,33.56c.08.2.32.36.53.36h6.77c.21,0,.45-.16.52-.36l26.31-66.92c.08-.2-.03-.36-.24-.36Z"/>
  <path class="cls-1" d="M265.04,276.78h-9.61c-.21,0-.38.17-.38.38v42.23c0,.21-.11.25-.26.1l-38.04-42.42c-.14-.16-.43-.29-.64-.29h-9.86c-.21,0-.38.17-.38.38v66.87c0,.21.17.38.38.38h9.76c.21,0,.38-.17.38-.38v-45.72c0-.21.12-.25.26-.1l41.38,45.92c.14.16.43.28.64.28h6.37c.21,0,.38-.17.38-.38v-66.87c0-.21-.17-.38-.38-.38Z"/>
  <path class="cls-1" d="M310.9,305.67c-.16-.14-.15-.37,0-.51l33.28-28.13c.16-.14.12-.25-.09-.25h-12.1c-.21,0-.51.11-.67.25l-29.44,24.94c-.16.14-.29.08-.29-.14v-24.67c0-.21-.17-.38-.38-.38h-15.89c-.21,0-.38.17-.38.38v66.87c0,.21.17.38.38.38h15.89c.21,0,.38-.17.38-.38v-28.21c0-.21.13-.27.28-.12l31.26,28.46c.16.14.46.26.67.26h19.34c.21,0,.26-.12.1-.26l-42.33-38.49Z"/>
  <path class="cls-1" d="M414.54,337.48h-33.75c-.21,0-.38-.17-.38-.38v-59.94c0-.21-.17-.38-.38-.38h-15.84c-.21,0-.38.17-.38.38v66.87c0,.21.17.38.38.38h50.36c.21,0,.38-.17.38-.38v-6.17c0-.21-.17-.38-.38-.38Z"/>
  <path class="cls-1" d="M506.18,276.78h-15.05c-.21,0-.46.15-.55.34l-22.7,45.5c-.09.19-.25.19-.34,0l-23.05-45.5c-.1-.19-.35-.34-.56-.34h-15.39c-.21,0-.38.17-.38.38v66.87c0,.21.17.38.38.38h9.76c.21,0,.38-.17.38-.38v-43.83c0-.21.08-.23.17-.04l22.49,43.91c.1.19.35.34.56.34h5.62c.21,0,.46-.15.55-.34l21.75-43.41c.09-.19.17-.17.17.04v43.33c0,.21.17.38.38.38h15.79c.21,0,.38-.17.38-.38v-66.87c0-.21-.17-.38-.38-.38Z"/>
  <path class="cls-1" d="M561.21,277.13c-.09-.19-.33-.35-.54-.35h-6.42c-.21,0-.46.15-.55.34l-32.63,66.95c-.09.19,0,.34.22.34h10.51c.21,0,.46-.16.55-.35l8.55-17.76c.09-.19.34-.35.55-.35h25.52c.21,0,.46.16.54.35l8.16,17.76c.09.19.33.35.54.35h16.19c.21,0,.31-.16.22-.35l-31.4-66.94ZM564.15,319.68h-19.58c-.21,0-.31-.16-.22-.35l10-21.15c.09-.19.24-.19.32,0l9.71,21.15c.09.19-.01.35-.22.35Z"/>
  <path class="cls-1" d="M647.59,276.78c-.21,0-.48.14-.6.32l-20.46,29.84c-.12.17-.32.18-.44,0l-21.79-29.86c-.12-.17-.4-.31-.61-.31h-16.59c-.21,0-.28.14-.16.31l28.23,38.78c.12.17.23.48.23.69v27.47c0,.21.17.38.38.38h15.84c.21,0,.38-.17.38-.38v-28.46c0-.21.1-.52.22-.7l26-37.77c.12-.17.04-.32-.17-.32h-10.46Z"/>
  <path class="cls-1" d="M730.53,344.11l-23.63-31.76c-.13-.17-.07-.37.13-.44,0,0,4.04-1.52,5.95-2.63,1.91-1.11,3.54-2.39,4.89-3.84s2.39-3.02,3.14-4.74c.75-1.71,1.12-3.53,1.12-5.46,0-2.66-.55-5.12-1.65-7.38-1.1-2.26-2.74-4.21-4.91-5.86-2.18-1.65-4.91-2.92-8.18-3.84-3.27-.91-11.11-1.35-11.11-1.35-.21-.01-.55-.02-.77-.02h-24.67c-.21,0-.38.17-.38.38v66.87c0,.21.17.38.38.38h15.84c.21,0,.38-.17.38-.38v-29.81c0-.21.17-.38.38-.38h2.18c.21,0,.49.14.61.31l22.24,29.96c.12.17.4.31.61.31h17.29c.21,0,.28-.14.15-.31ZM703.75,300.77c-.72,1.53-1.7,2.82-2.97,3.87-1.26,1.05-2.76,1.86-4.49,2.42-1.73.57-5.25.82-5.25.82-.21.01-.55.03-.76.03h-2.83c-.21,0-.38-.17-.38-.38v-23.77c0-.21.17-.38.38-.38h5.97c.21,0,.55.02.76.04,0,0,2.69.26,4.06.86s2.53,1.44,3.49,2.52c.97,1.08,1.72,2.37,2.27,3.87s.82,3.14.82,4.94c0,1.93-.36,3.66-1.07,5.19Z"/>
  <path class="cls-1" d="M187.06,292.92h-4.22c-.21,0-.53.08-.72.18l-11,5.75c-.19.1-.34.35-.34.56v44.62c0,.21.17.38.38.38h15.89c.21,0,.38-.17.38-.38v-50.73c0-.21-.17-.38-.38-.38Z"/>
  <circle class="cls-1" cx="179.11" cy="276.78" r="8.33"/>
</svg>